<svg width="55" height="55" viewBox="0 0 68 68" fill="none" xmlns="http://www.w3.org/2000/svg">
<g filter="url(#filter0_d_21_40)">
<rect x="4" width="60" height="60" rx="20" fill="#00B268"/>
</g>
<path d="M41.3609 32.088C38.5449 32.088 37.1369 33.432 37.1369 36.12V46.584C37.1369 49.208 36.2409 50.52 34.4489 50.52C32.6569 50.52 31.7609 49.208 31.7609 46.584V36.12C31.7609 33.432 30.3849 32.088 27.6329 32.088H18.3209C16.3369 32.088 15.3449 31.352 15.3449 29.88C15.3449 28.408 16.3369 27.672 18.3209 27.672H27.6329C30.3849 27.672 31.7609 26.296 31.7609 23.544V14.136C31.7609 11.576 32.6569 10.296 34.4489 10.296C36.2409 10.296 37.1369 11.576 37.1369 14.136V23.544C37.1369 26.296 38.5449 27.672 41.3609 27.672H50.5769C52.6249 27.672 53.6489 28.408 53.6489 29.88C53.6489 31.352 52.6249 32.088 50.5769 32.088H41.3609Z" fill="white"/>
<defs>
<filter id="filter0_d_21_40" x="0" y="0" width="68" height="68" filterUnits="userSpaceOnUse" color-interpolation-filters="sRGB">
<feFlood flood-opacity="0" result="BackgroundImageFix"/>
<feColorMatrix in="SourceAlpha" type="matrix" values="0 0 0 0 0 0 0 0 0 0 0 0 0 0 0 0 0 0 127 0" result="hardAlpha"/>
<feOffset dy="4"/>
<feGaussianBlur stdDeviation="2"/>
<feComposite in2="hardAlpha" operator="out"/>
<feColorMatrix type="matrix" values="0 0 0 0 0 0 0 0 0 0 0 0 0 0 0 0 0 0 0.25 0"/>
<feBlend mode="normal" in2="BackgroundImageFix" result="effect1_dropShadow_21_40"/>
<feBlend mode="normal" in="SourceGraphic" in2="effect1_dropShadow_21_40" result="shape"/>
</filter>
</defs>
</svg>
